

Release info:

General
Format : Matroska
Format version : Version 2
File size : 689 MiB
Duration : 2h 27mn
Overall bit rate : 654 Kbps


Video
ID : 1
Format : MPEG-4 Visual
Format profile : Advanced Simple@L5
Format settings, BVOP : Yes
Format settings, QPel : No
Format settings, GMC : No warppoints
Format settings, Matrix : Custom
Codec ID : V_MS/VFW/FOURCC / XVID
Codec ID/Hint : XviD
Duration : 2h 27mn
Bit rate : 561 Kbps
Width : 608 pixels
Height : 256 pixels
Display aspect ratio : 2.40:1
Frame rate mode : Constant
Frame rate : 23.976 fps
Color space : YUV
Chroma subsampling : 4:2:0
Bit depth : 8 bits
Scan type : Progressive
Compression mode : Lossy
Bits/(Pixel*Frame) : 0.150
Stream size : 591 MiB (86%)
Language : Hindi
Default : Yes
Forced : No

Audio
ID : 2
Format : MPEG Audio
Format version : Version 1
Format profile : Layer 3
Mode : Joint stereo
Mode extension : MS Stereo
Muxing mode : Header stripping
Codec ID : A_MPEG/L3
Codec ID/Hint : MP3
Duration : 2h 27mn
Bit rate mode : Constant
Bit rate : 80.0 Kbps
Channel(s) : 2 channels
Sampling rate : 32.0 KHz
Compression mode : Lossy
Delay relative to video : 468ms
Stream size : 84.4 MiB (12%)
Language : Hindi
Default : Yes
Forced : No

Source:
credit to original movie ripper DDR (Thanks)

IMDB Info:

On the request of his friend Kabir, SP Adil Sends him to the Naxal group as an informer. When Kabir finds the truth he becomes one of their gang leader.

Director: Prakash Jha
Writers: Prakash Jha, Anjum Rajabali,
Stars: Arjun Rampal, Abhay Deol and Manoj Bajpai 

Genres: Drama | Thriller | War
 
http://www.imdb.com/title/tt2292625/

Screen Shot:
 
http://www.shotpix.com/images/94013460922194674084.png 
http://www.shotpix.com/images/98535681781558364856.png 
http://www.shotpix.com/images/21557338461033772204.png 
http://www.shotpix.com/images/62388689386106409742.png 
http://www.shotpix.com/images/91615899105792374139.png 
http://www.shotpix.com/images/10653841008993268260.png 
http://www.shotpix.com/images/19433151894923361252.png